<mxfile host="Electron" agent="Mozilla/5.0 (Windows NT 10.0; Win64; x64) AppleWebKit/537.36 (KHTML, like Gecko) draw.io/25.0.2 Chrome/128.0.6613.186 Electron/32.2.5 Safari/537.36" version="25.0.2">
  <diagram name="Page-1" id="XX1ELKd5_rsGyIAgn1yR">
    <mxGraphModel dx="794" dy="519" grid="1" gridSize="10" guides="1" tooltips="1" connect="1" arrows="1" fold="1" page="1" pageScale="1" pageWidth="850" pageHeight="1100" math="0" shadow="0">
      <root>
        <mxCell id="0" />
        <mxCell id="1" parent="0" />
        <mxCell id="vQ4rnjyhuuc2NYR89fAG-1" value="SPI Flash 1" style="whiteSpace=wrap;html=1;aspect=fixed;" vertex="1" parent="1">
          <mxGeometry x="140" y="220" width="80" height="80" as="geometry" />
        </mxCell>
        <mxCell id="vQ4rnjyhuuc2NYR89fAG-2" value="SPI Flash 2" style="whiteSpace=wrap;html=1;aspect=fixed;" vertex="1" parent="1">
          <mxGeometry x="140" y="320" width="80" height="80" as="geometry" />
        </mxCell>
        <mxCell id="vQ4rnjyhuuc2NYR89fAG-3" value="MCU" style="whiteSpace=wrap;html=1;labelPosition=center;verticalLabelPosition=top;align=center;verticalAlign=bottom;fillColor=default;imageAspect=1;" vertex="1" parent="1">
          <mxGeometry x="280" y="210" width="160" height="200" as="geometry" />
        </mxCell>
        <mxCell id="vQ4rnjyhuuc2NYR89fAG-8" value="Program&amp;nbsp;&lt;div&gt;1&lt;/div&gt;" style="text;html=1;align=center;verticalAlign=middle;resizable=0;points=[];autosize=1;strokeColor=none;fillColor=none;" vertex="1" parent="1">
          <mxGeometry x="291" y="250" width="70" height="40" as="geometry" />
        </mxCell>
        <mxCell id="vQ4rnjyhuuc2NYR89fAG-4" value="Flash Memory" style="rounded=0;whiteSpace=wrap;html=1;labelPosition=center;verticalLabelPosition=top;align=center;verticalAlign=bottom;fillColor=none;" vertex="1" parent="1">
          <mxGeometry x="300" y="250" width="50" height="140" as="geometry" />
        </mxCell>
        <mxCell id="vQ4rnjyhuuc2NYR89fAG-6" value="" style="endArrow=none;html=1;rounded=0;" edge="1" parent="1">
          <mxGeometry width="50" height="50" relative="1" as="geometry">
            <mxPoint x="350" y="286" as="sourcePoint" />
            <mxPoint x="300" y="286" as="targetPoint" />
          </mxGeometry>
        </mxCell>
        <mxCell id="vQ4rnjyhuuc2NYR89fAG-7" style="edgeStyle=orthogonalEdgeStyle;rounded=0;orthogonalLoop=1;jettySize=auto;html=1;exitX=1;exitY=0.5;exitDx=0;exitDy=0;entryX=0.006;entryY=0.138;entryDx=0;entryDy=0;entryPerimeter=0;" edge="1" parent="1" source="vQ4rnjyhuuc2NYR89fAG-1" target="vQ4rnjyhuuc2NYR89fAG-4">
          <mxGeometry relative="1" as="geometry" />
        </mxCell>
        <mxCell id="vQ4rnjyhuuc2NYR89fAG-10" value="Program&amp;nbsp;&lt;div&gt;2&lt;/div&gt;" style="text;html=1;align=center;verticalAlign=middle;resizable=0;points=[];autosize=1;strokeColor=none;fillColor=none;" vertex="1" parent="1">
          <mxGeometry x="291" y="353" width="70" height="40" as="geometry" />
        </mxCell>
        <mxCell id="vQ4rnjyhuuc2NYR89fAG-11" value="" style="endArrow=none;html=1;rounded=0;" edge="1" parent="1">
          <mxGeometry width="50" height="50" relative="1" as="geometry">
            <mxPoint x="350" y="354" as="sourcePoint" />
            <mxPoint x="300" y="354" as="targetPoint" />
          </mxGeometry>
        </mxCell>
        <mxCell id="vQ4rnjyhuuc2NYR89fAG-14" style="edgeStyle=orthogonalEdgeStyle;rounded=0;orthogonalLoop=1;jettySize=auto;html=1;exitX=1;exitY=0.5;exitDx=0;exitDy=0;entryX=0.008;entryY=0.886;entryDx=0;entryDy=0;entryPerimeter=0;" edge="1" parent="1" source="vQ4rnjyhuuc2NYR89fAG-2" target="vQ4rnjyhuuc2NYR89fAG-4">
          <mxGeometry relative="1" as="geometry" />
        </mxCell>
        <mxCell id="vQ4rnjyhuuc2NYR89fAG-15" value="RAM" style="rounded=0;whiteSpace=wrap;html=1;labelPosition=center;verticalLabelPosition=top;align=center;verticalAlign=bottom;" vertex="1" parent="1">
          <mxGeometry x="375" y="250" width="50" height="90" as="geometry" />
        </mxCell>
        <mxCell id="vQ4rnjyhuuc2NYR89fAG-17" style="edgeStyle=orthogonalEdgeStyle;rounded=0;orthogonalLoop=1;jettySize=auto;html=1;exitX=0;exitY=0.5;exitDx=0;exitDy=0;entryX=1.016;entryY=0.112;entryDx=0;entryDy=0;entryPerimeter=0;startArrow=classic;startFill=1;endArrow=none;endFill=0;" edge="1" parent="1" source="vQ4rnjyhuuc2NYR89fAG-15" target="vQ4rnjyhuuc2NYR89fAG-4">
          <mxGeometry relative="1" as="geometry">
            <Array as="points">
              <mxPoint x="363" y="295" />
              <mxPoint x="363" y="266" />
            </Array>
          </mxGeometry>
        </mxCell>
        <mxCell id="vQ4rnjyhuuc2NYR89fAG-18" value="Active&lt;div&gt;Program&lt;/div&gt;" style="text;html=1;align=center;verticalAlign=middle;resizable=0;points=[];autosize=1;strokeColor=none;fillColor=none;" vertex="1" parent="1">
          <mxGeometry x="365" y="275" width="70" height="40" as="geometry" />
        </mxCell>
      </root>
    </mxGraphModel>
  </diagram>
</mxfile>
